<svg xmlns="http://www.w3.org/2000/svg" width="30" height="30" viewBox="0 0 30 30">
  <g id="SNS_naverblog" transform="translate(-76 -9285)">
    <rect id="사각형_1030" data-name="사각형 1030" width="30" height="30" rx="5" transform="translate(76 9285)" fill="#d3dbd9"/>
    <g id="그룹_884" data-name="그룹 884" transform="translate(79.838 9288.608)">
      <g id="그룹_881" data-name="그룹 881">
        <path id="빼기_3" data-name="빼기 3" d="M11.162,18.781a.6.6,0,0,1-.524-.3.479.479,0,0,1-.058-.086l-1.8-2.921H3.525A3.535,3.535,0,0,1,0,11.934V3.54A3.537,3.537,0,0,1,3.525,0H18.8a3.538,3.538,0,0,1,3.529,3.54v8.394A3.537,3.537,0,0,1,18.8,15.472H13.535l-1.793,2.921a.4.4,0,0,1-.061.089A.612.612,0,0,1,11.162,18.781Zm6.2-7.694V12.3H17.9a1.983,1.983,0,0,0,2-2.135V6.3H18.565v.388a1.513,1.513,0,0,0-1.148-.523H17.39a1.886,1.886,0,0,0-1.906,2.093A2.411,2.411,0,0,0,16.069,9.8a1.749,1.749,0,0,0,1.294.488h.021a1.557,1.557,0,0,0,1.182-.523v.319a1.1,1.1,0,0,1-.225.752.831.831,0,0,1-.647.248Zm-4.88-4.919c-.023,0-2.258.024-2.258,2.109a2.23,2.23,0,0,0,.563,1.471,2.258,2.258,0,0,0,1.695.611c.023,0,2.312-.025,2.312-2.082A2.248,2.248,0,0,0,14.227,6.8,2.32,2.32,0,0,0,12.483,6.169Zm-8.674,3.6v0a1.329,1.329,0,0,0,1.147.589A2.032,2.032,0,0,0,6.883,8.23c0-.021-.1-2.079-1.925-2.079a1.832,1.832,0,0,0-1.163.541V4.523H2.431v5.692H3.809V9.769ZM7.327,5.712c.064,0,.618.032.618,1.136v3.369H9.263V6.534a2.511,2.511,0,0,0-.59-1.628,1.8,1.8,0,0,0-1.35-.512V5.712Zm10.42,3.442a.877.877,0,1,1,.879-.877A.878.878,0,0,1,17.747,9.154Zm-5.262,0a.877.877,0,1,1,.877-.875A.878.878,0,0,1,12.485,9.154Zm-7.828,0a.877.877,0,1,1,.877-.875A.877.877,0,0,1,4.657,9.154Z" fill="#fff" stroke="rgba(0,0,0,0)" stroke-width="1"/>
      </g>
    </g>
  </g>
</svg>
