<svg xmlns="http://www.w3.org/2000/svg" width="30" height="30" viewBox="0 0 30 30">
  <g id="_7.SNS_youtube" data-name="7.SNS_youtube" transform="translate(-141 -9285.002)">
    <rect id="사각형_1032" data-name="사각형 1032" width="30" height="30" rx="5" transform="translate(141 9285.001)" fill="#d3dbd9"/>
    <path id="Icon_simple-youtube" data-name="Icon simple-youtube" d="M21.548,7.8a2.757,2.757,0,0,0-1.915-1.915c-1.715-.459-8.616-.459-8.616-.459S4.133,5.415,2.4,5.883A2.757,2.757,0,0,0,.486,7.8a28.654,28.654,0,0,0-.479,5.323,28.653,28.653,0,0,0,.479,5.3A2.757,2.757,0,0,0,2.4,20.339c1.713.46,8.616.46,8.616.46s6.883,0,8.616-.46a2.757,2.757,0,0,0,1.915-1.915,28.654,28.654,0,0,0,.459-5.3A28.654,28.654,0,0,0,21.548,7.8ZM8.814,16.414v-6.6l5.744,3.3Z" transform="translate(144.994 9286.891)" fill="#fff"/>
  </g>
</svg>
